# xmcd
#
# Track frame offsets:
#  150
#  30881
#  53426
#  66129
#  82108
#  110548
#  125167
#  138701
#  161271
#  180711
#  193156
#  208101
#  223480
#  236292
#  250124
#  266529
#  282948
#  294759
#  305843
#  337876
#  348306
#
# Disc length: 4728 seconds
#
# Revision: 1
# Processed by: cddbd v1.5.2PL0 Copyright (c) Steve Scherf et al.
# Submitted via: AltoMP3_Maker 3.0
#
DISCID=3f127615
DTITLE=Various Artist - Charly Blues Masterworks Vol 25 - Blue Eyed Blues
DYEAR=2009
DGENRE=Blues
TTITLE0=The Yardbirds/Smokestack Lighting - Version 1
TTITLE1=The Animals/Boom Boom
TTITLE2=Fleetwood Mac/Man Of The World
TTITLE3=Downliners Seet/I Wanna Put A Tiger In Your Tank
TTITLE4=Chris Farlowe/(They Call It) Stormy Monday Blues Parts 1 and 2
TTITLE5=Rod Stewart/So Much To Say
TTITLE6=The Savoy Brown Blues Band/I Tried
TTITLE7=The Graham Bond Organisation/Big Boss Man
TTITLE8=John Mayall and The Bluesbreakers/It Ain't Right
TTITLE9=Cyril Davies and The Rhythm and Blues All-Stars/Somebody Bady
TTITLE10=The Dharma Blues Band/Dealing With The Devil
TTITLE11=The All-Stars Featuring Jimmy Page/Down In The Boots
TTITLE12=Jo-Ann Kelly/I Feel So Good
TTITLE13=T.S. Mchee/Ain't Gonna Cry No More
TTITLE14=Dave Kelly/Married Woman Blues
TTITLE15=The Yardbirds (With Jeff Beck)/I Ain't Done Wrong
TTITLE16=Jeremy Spencer/Who's Knocking
TTITLE17=Johnny Winter/Gangster Of Love
TTITLE18=Santana/Every Day I Have The Blues
TTITLE19=James Harman/Swamp Night
TTITLE20=Mose Allison/Young Man's Blues
EXTD=
EXTT0=
EXTT1=
EXTT2=
EXTT3=
EXTT4=
EXTT5=
EXTT6=
EXTT7=
EXTT8=
EXTT9=
EXTT10=
EXTT11=
EXTT12=
EXTT13=
EXTT14=
EXTT15=
EXTT16=
EXTT17=
EXTT18=
EXTT19=
EXTT20=
PLAYORDER=
